<?xml version="1.0" encoding="UTF-8" standalone="no"?>
<!DOCTYPE svg PUBLIC "-//W3C//DTD SVG 1.1//EN" "http://www.w3.org/Graphics/SVG/1.1/DTD/svg11.dtd">
<svg width="480.00" height="480.00" viewBox="0.00 0.00 480.00 480.00" xmlns="http://www.w3.org/2000/svg" xmlns:xlink="http://www.w3.org/1999/xlink">
<g stroke-linecap="round" id="Paw_Favicon_2">
<path d="M282.50,25.50 C282.36,25.50 271.93,31.32 270.50,32.50 C267.00,35.48 262.90,46.08 260.32,54.32 C258.11,61.57 256.55,77.74 256.36,89.17 C256.42,119.82 259.34,167.54 259.50,168.50 C260.53,174.56 262.66,179.70 265.19,184.27 C266.60,186.80 270.60,191.13 274.50,193.50 C274.91,193.74 328.81,221.59 329.36,221.85 C330.98,222.62 332.86,222.86 334.50,222.50 C335.08,222.36 338.04,220.91 339.37,220.24 C341.53,219.05 344.05,216.93 345.51,214.77 C348.96,209.57 354.37,193.22 356.61,183.88 C358.62,175.47 361.28,158.90 361.52,150.23 C361.62,145.86 360.48,124.99 360.04,121.22 C359.20,114.12 356.63,103.82 353.63,94.34 C351.54,87.89 349.76,82.76 347.96,79.18 C345.94,75.21 340.85,67.79 338.09,64.57 C332.85,58.51 322.67,49.43 312.73,41.57 C304.55,35.37 295.14,29.65 291.49,28.50 C290.80,28.29 287.16,27.53 285.31,27.08 C283.79,26.74 282.97,25.52 282.50,25.50 Z" fill="none" stroke="rgb(0, 0, 0)" stroke-width="18.00" stroke-opacity="1.00" stroke-linejoin="round"/>
<path d="M145.50,223.50 C158.56,217.01 188.87,201.84 201.91,194.94 C205.90,192.81 213.43,187.41 215.04,184.69 C216.51,182.08 218.31,177.33 219.12,174.11 C220.61,167.97 221.61,156.20 222.29,143.66 C222.68,135.18 223.29,119.10 223.50,111.50 C223.48,102.77 222.98,88.73 222.66,82.33 C222.22,75.54 220.90,60.60 219.64,55.72 C219.16,53.90 216.45,45.37 215.33,42.46 C213.63,38.12 210.92,33.66 208.27,31.35 C206.95,30.25 203.64,27.83 202.50,27.30 C200.76,26.53 196.86,26.19 194.50,26.50 C192.16,26.86 184.98,29.89 180.85,32.32 C172.70,37.15 160.38,45.82 154.68,50.77 C149.02,55.73 140.56,66.58 136.21,74.11 C132.37,80.79 125.95,94.77 123.58,103.03 C121.74,109.54 118.97,124.12 118.32,131.90 C117.75,139.18 118.46,151.76 119.84,162.61 C121.11,171.00 124.71,190.50 125.50,193.50 C127.26,200.04 129.64,205.40 131.87,209.02 C134.75,213.61 141.00,220.15 144.07,222.07 C145.82,223.20 145.69,226.70 145.50,228.50" fill="none" stroke="rgb(0, 0, 0)" stroke-width="18.00" stroke-opacity="1.00" stroke-linejoin="round"/>
<path d="M53.50,312.50 C57.61,310.39 60.73,308.35 63.45,305.63 C68.08,300.98 79.81,288.58 85.09,282.69 C92.27,274.36 98.38,264.85 100.50,259.50 C102.19,255.14 102.75,249.79 101.92,247.05 C101.89,246.97 94.73,226.85 93.98,224.08 C90.85,212.26 81.09,146.54 79.99,140.03 C79.40,136.40 76.19,131.72 74.50,129.50 C73.80,128.49 73.40,128.51 71.99,129.64 C64.82,135.12 55.07,144.95 49.81,150.81 C44.93,156.34 37.34,169.78 34.84,174.67 C29.88,184.48 25.52,195.01 23.66,202.84 C21.97,210.04 19.57,225.79 18.97,233.29 C18.32,241.63 19.02,255.72 21.10,263.20 C23.17,270.52 29.32,284.79 32.66,290.69 C34.26,293.52 38.76,300.06 41.84,303.20 C44.34,305.72 51.16,310.77 53.50,312.50" fill="none" stroke="rgb(0, 0, 0)" stroke-width="18.00" stroke-opacity="1.00" stroke-linejoin="round"/>
<path d="M406.50,128.50 C405.23,128.52 403.60,129.70 402.82,131.27 C401.60,133.81 397.97,150.61 396.50,158.50 C394.29,172.57 388.10,214.71 387.76,216.57 C387.11,220.09 385.39,227.14 384.30,230.72 C383.06,234.76 379.49,242.83 378.84,244.73 C377.73,248.12 377.20,254.35 378.22,257.44 C379.98,262.54 390.66,276.68 395.76,283.06 C407.52,297.20 420.33,308.43 421.50,309.50 C423.45,311.21 425.64,312.00 427.50,311.50 C428.72,311.14 436.83,305.40 439.50,302.50 C443.02,298.62 450.82,284.14 453.82,276.88 C456.83,269.53 460.16,255.68 461.16,247.81 C461.98,241.07 460.63,227.11 459.42,219.85 C457.54,209.30 455.13,198.70 452.61,190.59 C450.20,183.01 443.48,170.42 438.43,163.09 C435.47,158.81 421.23,140.43 419.50,138.50 C415.36,133.93 411.00,130.45 408.25,129.06 C407.45,128.70 406.87,128.51 406.50,128.50 Z" fill="none" stroke="rgb(0, 0, 0)" stroke-width="18.00" stroke-opacity="1.00" stroke-linejoin="round"/>
<path d="M236.50,233.50 C239.10,233.28 257.91,235.01 266.04,237.52 C272.88,239.67 290.92,247.71 294.50,249.50 C301.26,252.89 312.37,259.70 318.50,264.50 C321.40,266.78 335.59,279.33 341.48,284.71 C347.96,290.84 355.81,299.15 362.17,306.63 C365.01,310.08 378.54,328.59 380.50,331.50 C385.32,338.66 391.64,349.57 395.38,357.46 C399.57,366.73 404.14,378.73 405.82,386.03 C406.33,388.25 408.48,399.35 408.50,399.50 C408.85,401.86 407.62,406.14 406.78,408.68 C404.64,415.02 402.68,420.21 400.63,423.98 C398.60,427.64 393.38,433.94 390.36,436.59 C387.55,439.03 380.39,443.97 377.50,445.50 C374.49,447.07 367.36,449.58 364.20,450.16 C360.81,450.76 353.71,450.66 350.14,449.94 C343.70,448.59 328.38,442.20 322.32,438.73 C318.03,436.26 304.78,427.33 298.31,423.64 C290.62,419.28 277.05,413.25 269.77,411.53 C263.77,410.15 243.80,408.47 239.70,408.43 C232.28,408.39 219.61,409.36 213.20,410.56 C208.99,411.38 203.52,412.88 199.63,414.57 C193.97,417.07 183.55,423.15 173.05,429.72 C163.63,435.30 151.45,441.76 143.76,444.94 C140.06,446.46 133.67,448.75 130.19,449.79 C126.61,450.83 120.54,451.46 117.58,450.59 C112.63,449.04 95.11,441.02 91.50,438.50 C88.56,436.41 83.70,431.29 81.61,428.05 C79.62,424.93 76.49,418.14 75.19,414.89 C73.50,410.62 71.67,403.50 71.50,400.50 C71.32,396.53 72.53,390.47 74.24,385.32 C76.51,378.43 82.02,363.73 84.50,358.50 C85.51,356.37 94.29,340.15 98.15,334.11 C100.71,330.12 111.03,315.80 115.89,309.43 C120.85,303.19 130.99,291.64 137.19,285.63 C140.99,281.97 157.39,267.91 160.50,265.50 C166.74,260.69 179.00,252.58 185.33,249.16 C191.44,245.87 205.97,239.92 213.63,237.37 C220.16,235.25 236.34,233.52 236.50,233.50 Z" fill="none" stroke="rgb(0, 0, 0)" stroke-width="18.00" stroke-opacity="1.00" stroke-linejoin="round"/>
</g>
</svg>
