<?xml version="1.0" standalone="no"?>
<!DOCTYPE svg PUBLIC "-//W3C//DTD SVG 20010904//EN"
 "http://www.w3.org/TR/2001/REC-SVG-20010904/DTD/svg10.dtd">
<svg version="1.0" xmlns="http://www.w3.org/2000/svg"
 width="480.000000pt" height="480.000000pt" viewBox="0 0 480.000000 480.000000"
 preserveAspectRatio="xMidYMid meet">

<g transform="translate(0.000000,480.000000) scale(0.100000,-0.100000)"
fill="#000000" stroke="none">
<path d="M2715 4522 c-92 -50 -123 -93 -168 -228 -57 -174 -68 -342 -47 -784
14 -306 24 -371 65 -456 20 -40 52 -87 73 -106 47 -42 557 -307 607 -315 58
-9 154 44 198 110 42 62 85 180 124 343 26 112 28 132 28 334 -1 235 -7 283
-65 465 -60 187 -141 306 -296 436 -163 136 -239 185 -343 220 -78 26 -96 24
-176 -19z"/>
<path d="M1845 4493 c-106 -39 -327 -190 -404 -278 -49 -57 -127 -178 -166
-260 -111 -236 -142 -489 -95 -785 22 -140 52 -270 72 -317 28 -65 83 -135
148 -187 68 -55 96 -66 115 -47 6 5 132 70 280 145 149 74 289 151 313 172 88
75 115 173 133 489 12 222 7 535 -12 671 -14 106 -65 258 -104 308 -69 91
-177 125 -280 89z"/>
<path d="M654 3474 c-63 -42 -222 -204 -268 -274 -57 -85 -148 -268 -174 -350
-47 -144 -78 -384 -68 -515 8 -112 38 -212 101 -342 60 -122 130 -208 214
-262 91 -59 148 -36 302 121 214 217 290 333 297 452 3 51 -3 79 -33 166 -48
136 -66 223 -110 520 -45 313 -60 385 -87 429 -53 85 -104 102 -174 55z"/>
<path d="M4018 3474 c-16 -8 -37 -32 -48 -54 -26 -51 -70 -275 -114 -575 -33
-227 -45 -281 -95 -417 -44 -120 -23 -208 79 -343 155 -204 307 -354 381 -377
34 -10 44 -8 92 16 84 41 148 112 211 235 126 247 150 431 96 716 -42 217 -95
344 -215 510 -191 267 -291 341 -387 289z"/>
<path d="M2300 2469 c-174 -27 -272 -59 -433 -140 -456 -230 -907 -763 -1081
-1280 -67 -197 -60 -285 36 -471 51 -100 119 -163 235 -222 134 -67 207 -89
268 -81 117 15 331 110 540 240 152 95 215 122 325 141 127 22 359 14 475 -15
96 -25 211 -82 360 -178 138 -88 193 -116 304 -153 163 -55 307 -34 451 64
130 89 200 185 251 346 l30 95 -17 95 c-28 161 -86 311 -187 490 -63 112 -203
307 -302 421 -89 102 -286 284 -403 371 -86 64 -262 158 -397 211 -144 57
-335 84 -455 66z"/>
</g>
</svg>
