<?xml version="1.0" encoding="UTF-8"?>
<!-- Generator: Blender, SVG Export for Grease Pencil - v1.0 -->
<!DOCTYPE svg PUBLIC "-//W3C//DTD SVG 1.1//EN" "http://www.w3.org/Graphics/SVG/1.1/DTD/svg11.dtd">
<svg version="1.0" x="0px" y="0px" xmlns="http://www.w3.org/2000/svg" width="216px" height="181px" viewBox="0 0 216 181">
	<g id="blender_frame_1">
		<g id="blender_object_Telegram_logo.svg">
			<!--Layer: Livello_1-->
			<g id="Livello_1">
				<polygon fill="#C7D9E9" stroke="none" fill-opacity="1" points="57.866577,102.262360 60.261475,108.891022 62.656311,115.519745 65.051147,122.148315 67.446106,128.777039 69.840942,135.405701 72.235779,142.034332 74.630676,148.662964 77.025574,155.291687 79.420410,161.920288 79.792175,162.624756 80.225891,163.367432 80.797485,164.248047 81.486206,165.174500 82.271545,166.055054 83.132812,166.797729 84.049377,167.310791 85.000732,167.502197 87.331482,165.971008 91.944946,161.867493 98.158264,155.926514 105.288879,148.883209 112.653992,141.472351 119.570801,134.428955 125.356689,128.488037 129.328979,124.384521 130.804688,122.853333 136.107666,112.610779 141.410706,102.368225 146.713623,92.125580 152.016541,81.883057 157.319519,71.640472 162.622437,61.397858 167.925415,51.155273 173.228333,40.912689 178.531372,30.670135 165.209656,36.913757 151.887878,43.157349 138.566040,49.400970 125.244446,55.644623 111.922668,61.888184 98.600891,68.131805 85.279114,74.375458 71.957397,80.619019 58.635681,86.862701 58.550232,88.573730 58.464783,90.284851 58.379272,91.995911 58.293884,93.707001 58.208435,95.418060 58.122925,97.129150 58.037476,98.840179 57.952026,100.551300 57.866577,102.262360" />
				<polygon fill="#A9C5D7" stroke="none" fill-opacity="1" points="86.445007,117.562164 85.985291,122.448151 85.525635,127.334106 85.065857,132.220032 84.606140,137.106018 84.146423,141.991943 83.686646,146.877899 83.226990,151.763855 82.767212,156.649841 82.307495,161.535767 82.236755,163.088379 82.357300,164.530029 82.767883,165.971741 83.607605,167.080627 85.015991,167.524231 87.132263,166.969727 90.096008,165.084473 94.046509,161.535767 98.498535,157.168762 102.806519,153.090210 106.868958,149.360352 110.584595,146.039429 113.851929,143.187408 116.569763,140.864502 118.636536,139.130798 119.950928,138.046539 120.411621,137.671722" />
				<polygon fill="#FEFEFE" stroke="none" fill-opacity="1" points="58.255676,104.390961 53.329407,102.785828 48.403015,101.180786 43.476624,99.575623 38.550354,97.970551 33.624023,96.365448 28.697693,94.760376 23.771362,93.155273 18.845032,91.550140 13.918701,89.945038 13.268738,89.620270 12.608154,89.207092 11.858887,88.620605 11.122131,87.855835 10.499207,86.908234 10.091431,85.772919 10.000000,84.445190 10.326172,82.920410 10.624817,82.264099 11.098694,81.601746 11.817200,80.883179 12.289856,80.487091 12.849731,80.058075 13.505432,79.589783 22.328430,75.431274 40.414551,68.161835 65.013245,58.742584 93.373901,48.135071 122.745911,37.300385 150.378967,27.200012 173.522278,18.795258 189.425232,13.047424 195.337463,10.917908 195.981873,10.723328 196.702698,10.533936 197.614319,10.330994 198.660034,10.150452 199.783813,10.028198 200.929016,10.000000 202.039368,10.101929 203.058594,10.369812 203.963501,10.772522 204.736694,11.365112 205.350464,12.117676 205.777405,13.000305 206.008789,13.909058 206.161621,14.772156 206.260742,15.642456 206.305908,16.517334 206.296875,17.394440 206.271179,18.148651 206.218933,18.923065 206.150757,19.762695 206.076782,20.712585 204.654053,30.600616 201.529846,46.113434 197.175842,65.843872 192.099548,87.854523 186.808289,110.207825 181.809570,130.966370 177.610779,148.192688 174.719421,159.949249 173.642883,164.298706 173.332458,165.233093 172.907654,166.221863 172.270691,167.399170 171.397034,168.645630 170.262207,169.841675 168.841797,170.867920 167.111572,171.604980 165.046814,171.933472 163.939209,171.919373 162.845154,171.807007 161.770569,171.598450 160.721680,171.296387 159.704651,170.902954 158.725586,170.420532 157.790405,169.851685 156.905457,169.198486 156.076782,168.463501 150.574219,164.027100 143.231018,158.517212 134.605896,152.289368 125.258118,145.699097 115.746155,139.101685 106.629028,132.852631 98.465576,127.307312 91.814697,122.821259 87.235352,119.749756 86.723083,119.234589 86.439209,118.569153 86.431641,117.900299 86.730408,117.226746 89.764771,114.368103 97.079651,107.813019 107.695435,98.232758 120.323242,86.727783 133.673706,74.398193 146.457825,62.344574 157.386658,51.667145 165.170837,43.466248 168.521301,38.842316 168.326355,38.270966 167.752869,38.145691 162.520569,40.801849 152.802856,46.616455 139.462219,54.799072 123.876526,64.468140 107.423401,74.742004 91.481079,84.739166 77.427124,93.578033 66.639587,100.377075 60.496277,104.254730 59.758789,104.416534 59.007385,104.462250 58.255676,104.390961 58.255676,104.390961" />
			</g>
		</g>
	</g>
</svg>
