<?xml version="1.0" encoding="UTF-8"?>
<!-- Generator: Blender, SVG Export for Grease Pencil - v1.0 -->
<!DOCTYPE svg PUBLIC "-//W3C//DTD SVG 1.1//EN" "http://www.w3.org/Graphics/SVG/1.1/DTD/svg11.dtd">
<svg version="1.0" x="0px" y="0px" xmlns="http://www.w3.org/2000/svg" width="352px" height="252px" viewBox="0 0 352 252">
	<g id="blender_frame_1">
		<g id="blender_object_GPencil">
			<!--Layer: GP_Layer-->
			<g id="GP_Layer">
				<polygon fill="#7B7B7B" stroke="none" fill-opacity="1" points="334.953369,46.265381 333.835876,42.754333 332.428772,39.387512 330.746521,36.179688 328.803467,33.145874 326.614075,30.300720 324.192627,27.659241 321.553528,25.236145 318.711304,23.046387 315.680298,21.104675 312.474854,19.425903 309.109436,18.024963 305.598511,16.916687 297.484619,15.146423 283.450439,13.572571 264.535034,12.233582 241.777405,11.168274 216.216553,10.415100 188.891785,10.012878 160.841919,10.000000 133.106140,10.415283 106.723450,11.297180 82.732971,12.684448 62.173645,14.615662 46.084656,17.129395 42.572876,18.246582 39.205322,19.653320 35.996887,21.335266 32.962402,23.277954 30.116699,25.466919 27.474609,27.887878 25.051025,30.526367 22.860718,33.367981 20.918640,36.398376 19.239502,39.603149 17.838318,42.967773 16.729797,46.478027 14.728394,56.865936 13.068787,68.792755 11.758545,81.954224 10.805237,96.046173 10.216492,110.764343 10.000000,125.804443 10.163208,140.862244 10.713867,155.633545 11.659485,169.814056 13.007751,183.099640 14.766174,195.185974 16.942505,205.768860 18.059937,209.279907 19.467041,212.646729 21.149292,215.854492 23.092346,218.888306 25.281860,221.733398 27.703308,224.375000 30.342346,226.798035 33.184570,228.987854 36.215637,230.929565 39.421021,232.608276 42.786377,234.009216 46.297363,235.117554 58.630371,237.149048 75.934875,238.854004 97.226318,240.219604 121.520142,241.232971 147.831848,241.881226 175.176819,242.151611 202.570496,242.031189 229.028442,241.507080 253.566162,240.566528 275.198730,239.196655 292.942017,237.384521 305.811218,235.117554 309.323059,234.000305 312.690491,232.593506 315.898987,230.911621 318.933411,228.968933 321.779114,226.779907 324.421204,224.359009 326.844788,221.720459 329.035095,218.878906 330.977173,215.848511 332.656311,212.643799 334.057617,209.279114 335.166077,205.768860 337.299011,194.698486 339.066345,182.389771 340.460388,169.093018 341.473511,155.058563 342.098145,140.536713 342.326538,125.777863 342.151428,111.032257 341.564819,96.550293 340.559448,82.582306 339.127380,69.378601 337.261292,57.189514 335.068726,46.811523" />
			</g>
		</g>
	</g>
	<g id="blender_frame_1">
		<g id="blender_object_GPencil.001">
			<!--Layer: GP_Layer-->
			<g id="GP_Layer">
				<polygon fill="#FEFEFE" stroke="none" fill-opacity="1" points="230.722351,126.017090 223.489990,121.870026 216.257690,117.722900 209.025269,113.575806 201.792969,109.428741 194.560547,105.281616 187.328247,101.134552 180.095886,96.987457 172.863525,92.840393 165.631226,88.693268 158.398865,84.546173 151.166504,80.399109 143.934143,76.251984 143.934143,84.546173 143.934143,92.840332 143.934143,101.134552 143.934143,109.428680 143.934143,117.722900 143.934143,126.017090 143.934143,134.311249 143.934143,142.605438 143.934143,150.899628 143.934143,159.193787 143.934143,167.488007 143.934143,175.782196 151.166504,171.635071 158.398865,167.488007 165.631226,163.340881 172.863525,159.193787 180.095886,155.046722 187.328247,150.899597 194.560547,146.752502 201.792969,142.605377 209.025269,138.458313 216.257690,134.311218 223.489990,130.164124 230.360779,126.224396" />
			</g>
		</g>
	</g>
</svg>
